#!OML:ASF X:\für Bonn\!DataBase\2005_08_12_Daniel\c3d\Daniel.ASF
:FULLY-SPECIFIED
:DEGREES
46
root 2.01209 17.5483 18.2486 -727.962 10.8813 -2.14777
lowerback 6.17487 -0.501946 4.4162
upperback 1.28848 -0.461201 -3.32847
thorax -2.19355 -0.262487 -5.91815
lowerneck 2.74437 -2.44857 0.112663
upperneck 7.20441 -3.3108 0.890274
head 1.78786 -1.62919 0.23272
rclavicle -2.93207e-015 1.27222e-014
rhumerus 19.4518 10.3678 -58.4267
rradius 83.8471
rwrist 1.22074
rhand -23.4575 17.0542
rfingers 7.12502
rthumb 3.00132 -12.9044
lclavicle -2.93207e-015 1.27222e-014
lhumerus -46.7003 43.2408 50.9685
lradius 18.6212
lwrist -40.3019
lhand -11.392 -6.51479
lfingers 7.12502
lthumb 14.6428 22.9482
rfemur 6.57877 21.2733 25.9411
rtibia 18.2293
rfoot -22.4532 -24.5097
rtoes -13.4372
lfemur -0.388721 -12.7449 -16.5039
ltibia 32.2085
lfoot -23.5003 3.87632
ltoes -12.3261
47
root 2.01708 17.5494 18.2555 -727.937 10.8967 -2.17129
lowerback 6.19803 -0.395795 4.54424
upperback 1.2702 -0.312944 -3.43674
thorax -2.20647 -0.190094 -6.11881
lowerneck 2.69651 -2.57352 0.147917
upperneck 7.24683 -3.48708 1.0537
head 1.81356 -1.7128 0.275232
rclavicle 1.2921e-015 3.97569e-015
rhumerus 21.9792 9.6968 -57.6292
rradius 81.0633
rwrist 1.01179
rhand -22.6151 17.0244
rfingers 7.12502
rthumb 3.81483 -12.9212
lclavicle 1.2921e-015 3.97569e-015
lhumerus -45.6493 42.4809 51.8429
lradius 18.7321
lwrist -39.6322
lhand -11.5049 -6.34709
lfingers 7.12502
lthumb 14.5341 23.1238
rfemur 6.59744 21.1849 25.926
rtibia 18.1726
rfoot -22.4314 -24.4435
rtoes -13.4206
lfemur -0.354189 -12.8485 -16.5231
ltibia 32.1566
lfoot -23.5112 3.97279
ltoes -12.3215
48
root 2.02244 17.5506 18.2612 -727.908 10.9038 -2.18139
lowerback 6.2416 -0.280078 4.66538
upperback 1.23539 -0.151648 -3.54508
thorax -2.24482 -0.112385 -6.31723
lowerneck 2.6723 -2.7087 0.172425
upperneck 7.28675 -3.67704 1.21519
head 1.83496 -1.80354 0.319106
rclavicle 2.34566e-014 -2.70347e-014
rhumerus 24.4349 9.08112 -56.7549
rradius 78.1897
rwrist 0.839693
rhand -21.7843 17.0063
rfingers 7.12502
rthumb 4.61701 -12.9234
lclavicle 2.34566e-014 -2.70347e-014
lhumerus -44.6548 41.7427 52.6556
lradius 18.8371
lwrist -39.0542
lhand -11.575 -6.14848
lfingers 7.12502
lthumb 14.4665 23.3272
rfemur 6.60488 21.1108 25.8926
rtibia 18.1209
rfoot -22.3799 -24.3813
rtoes -13.3849
lfemur -0.328662 -12.9284 -16.553
ltibia 32.1052
lfoot -23.503 4.07094
ltoes -12.2725
49
root 2.02723 17.5527 18.2667 -727.869 10.9233 -2.17862
lowerback 6.27829 -0.166634 4.75817
upperback 1.20824 0.00500906 -3.63957
thorax -2.27079 -0.0362379 -6.48458
lowerneck 2.59357 -2.84216 0.194529
upperneck 7.3376 -3.86403 1.34885
head 1.86908 -1.89298 0.353801
rclavicle -3.51352e-014 -1.11319e-014
rhumerus 26.8549 8.55544 -55.7568
rradius 75.2696
rwrist 0.698055
rhand -21.0367 16.9122
rfingers 7.12502
rthumb 5.3389 -13.0006
lclavicle -3.51352e-014 -1.11319e-014
lhumerus -43.6708 40.9707 53.537
lradius 18.9674
lwrist -38.405
lhand -11.6219 -5.96113
lfingers 7.12502
lthumb 14.4214 23.5178
rfemur 6.59991 21.0428 25.8441
rtibia 18.0728
rfoot -22.355 -24.33
rtoes -13.4009
lfemur -0.307416 -13.0382 -16.6014
ltibia 32.0531
lfoot -23.5096 4.17446
ltoes -12.2636
50
root 2.03173 17.554 18.2707 -727.837 10.9549 -2.17833
lowerback 6.32693 -0.0485867 4.86333
upperback 1.17939 0.168902 -3.74478
thorax -2.30299 0.0431386 -6.67162
lowerneck 2.54496 -2.98485 0.225416
upperneck 7.37746 -4.06405 1.49948
head 1.89508 -1.98845 0.392624
rclavicle -1.33186e-014 -1.74931e-014
rhumerus 29.0703 8.00137 -54.8626
rradius 72.4339
rwrist 0.689113
rhand -20.2452 16.8861
rfingers 7.12502
rthumb 6.10312 -13.006
lclavicle -1.33186e-014 -1.74931e-014
lhumerus -42.6746 40.1502 54.4057
lradius 19.0724
lwrist -37.7807
lhand -11.6641 -5.79626
lfingers 7.12502
lthumb 14.3807 23.6856
rfemur 6.61076 21.0043 25.8101
rtibia 18.0222
rfoot -22.3752 -24.2993
rtoes -13.3141
lfemur -0.298391 -13.1201 -16.6355
ltibia 32.0063
lfoot -23.5031 4.23855
ltoes -12.2618
51
root 2.03649 17.5556 18.2744 -727.806 10.9675 -2.17709
lowerback 6.37465 0.0774139 4.98324
upperback 1.15282 0.344295 -3.85978
thorax -2.32913 0.128378 -6.87906
lowerneck 2.48824 -3.12846 0.287152
upperneck 7.42276 -4.26475 1.63704
head 1.92351 -2.08351 0.42197
rclavicle -1.03368e-014 -3.97569e-014
rhumerus 31.1079 7.41643 -54.1642
rradius 69.6153
rwrist 0.951336
rhand -19.5186 16.9424
rfingers 7.12502
rthumb 6.80456 -12.9282
lclavicle -1.03368e-014 -3.97569e-014
lhumerus -41.7477 39.3836 55.1881
lradius 19.1941
lwrist -37.2421
lhand -11.6577 -5.67353
lfingers 7.12502
lthumb 14.3868 23.8079
rfemur 6.61149 20.9726 25.7738
rtibia 17.9741
rfoot -22.3559 -24.2762
rtoes -13.3248
lfemur -0.284981 -13.1845 -16.6741
ltibia 31.9582
lfoot -23.4826 4.32079
ltoes -12.3636
52
root 2.04065 17.5571 18.2773 -727.776 10.9997 -2.17545
lowerback 6.42342 0.191565 5.06803
upperback 1.1288 0.50231 -3.94749
thorax -2.35511 0.205265 -7.036
lowerneck 2.42054 -3.26217 0.302783
upperneck 7.47162 -4.45234 1.76341
head 1.95599 -2.17326 0.455299
rclavicle -2.3059e-014 1.27222e-014
rhumerus 33.1088 6.87118 -53.5708
rradius 66.6424
rwrist 1.43165
rhand -18.9241 17.1017
rfingers 7.12502
rthumb 7.37844 -12.7496
lclavicle -2.3059e-014 1.27222e-014
lhumerus -40.929 38.8479 55.8153
lradius 19.2472
lwrist -36.9394
lhand -11.6104 -5.64307
lfingers 7.12502
lthumb 14.4324 23.8351
rfemur 6.62402 20.9715 25.7523
rtibia 17.9235
rfoot -22.3612 -24.2972
rtoes -13.2182
lfemur -0.282582 -13.2678 -16.7092
ltibia 31.9165
lfoot -23.4611 4.38519
ltoes -12.3098
